<svg height="512pt" viewBox="0 -32 512 511" width="512pt" xmlns="http://www.w3.org/2000/svg"><path d="m256 94.765625c-8.285156 0-15-6.714844-15-15v-64.265625c0-8.285156 6.714844-15 15-15s15 6.714844 15 15v64.265625c0 8.285156-6.714844 15-15 15zm0 0" fill="#fff36e"/><path d="m191.734375 110.835938c-3.839844 0-7.679687-1.464844-10.605469-4.394532l-32.136718-32.132812c-5.855469-5.859375-5.855469-15.355469 0-21.214844 5.859374-5.859375 15.355468-5.859375 21.214843 0l32.132813 32.132812c5.859375 5.859376 5.859375 15.355469 0 21.214844-2.929688 2.925782-6.769532 4.394532-10.605469 4.394532zm0 0" fill="#fff36e"/><path d="m320.265625 110.835938c-3.835937 0-7.675781-1.464844-10.605469-4.394532-5.855468-5.859375-5.855468-15.355468 0-21.214844l32.136719-32.132812c5.855469-5.855469 15.351563-5.859375 21.210937 0 5.859376 5.859375 5.859376 15.355469 0 21.214844l-32.132812 32.132812c-2.929688 2.925782-6.769531 4.394532-10.609375 4.394532zm0 0" fill="#ffcc01"/><path d="m256 143.828125c-19.546875-13.9375-38.558594-2.566406-43.84375 1.960937l-64.847656 55.582032c-6.011719 5.15625-13.6875 7.996094-21.605469 7.996094h-46.453125c-43.773438 0-79.25 35.414062-79.25 79.25v144.617187c0 8.28125 6.714844 15 15 15h128.53125c8.285156 0 15-6.71875 15-15v-137.703125l97.46875-83.542969zm0 0" fill="#00eccf"/><path d="m256 143.828125c19.546875-13.9375 38.558594-2.566406 43.84375 1.960937l64.847656 55.582032c6.011719 5.15625 13.6875 7.996094 21.605469 7.996094h46.453125c43.773438 0 79.25 35.414062 79.25 79.25v144.617187c0 8.28125-6.714844 15-15 15h-128.53125c-8.285156 0-15-6.71875-15-15v-137.703125l-97.46875-83.542969zm0 0" fill="#0051bd"/><path d="m79.265625 209.367188c-34.847656 0-63.199219-28.351563-63.199219-63.199219 0-34.847657 28.351563-63.199219 63.199219-63.199219 34.851563 0 63.203125 28.351562 63.203125 63.199219 0 34.847656-28.355469 63.199219-63.203125 63.199219zm0 0" fill="#ffece3"/><path d="m79.265625 82.96875v126.398438c34.847656 0 63.203125-28.351563 63.203125-63.199219 0-34.847657-28.355469-63.199219-63.203125-63.199219zm0 0" fill="#ffdccd"/><path d="m432.734375 209.367188c-34.847656 0-63.199219-28.351563-63.199219-63.199219 0-34.847657 28.351563-63.199219 63.199219-63.199219s63.199219 28.351562 63.199219 63.199219c0 34.847656-28.351563 63.199219-63.199219 63.199219zm0 0" fill="#e8afa3"/><path d="m432.734375 82.96875v126.398438c34.847656 0 63.199219-28.351563 63.199219-63.199219 0-34.847657-28.351563-63.199219-63.199219-63.199219zm0 0" fill="#d19188"/><path d="m212.15625 145.789062-64.847656 55.585938c-6.011719 5.152344-13.6875 7.992188-21.605469 7.992188h-46.4375v238.867187h64.269531c8.28125 0 15-6.714844 15-15v-137.703125l97.464844-83.542969v-68.160156c-19.546875-13.9375-38.558594-2.566406-43.84375 1.960937zm0 0" fill="#00cab1"/><path d="m432.75 209.367188h-.015625v238.867187h64.265625c8.285156 0 15-6.714844 15-15v-144.617187c0-43.835938-35.476562-79.25-79.25-79.25zm0 0" fill="#00347b"/><path d="m271 79.765625v-64.265625c0-8.285156-6.714844-15-15-15v94.265625c8.285156 0 15-6.714844 15-15zm0 0" fill="#ffcc01"/></svg>